<?xml version="1.0" encoding="utf-8"?>
<!-- Generator: Adobe Illustrator 19.0.0, SVG Export Plug-In . SVG Version: 6.00 Build 0)  -->
<svg version="1.1" id="Layer_1" xmlns="http://www.w3.org/2000/svg" xmlns:xlink="http://www.w3.org/1999/xlink" x="0px" y="0px"
	 viewBox="-272 395.9 50 50" style="enable-background:new -272 395.9 50 50;" xml:space="preserve">
<style type="text/css">
	.st0{fill:none;stroke:#FFFFFF;stroke-miterlimit:10;}
	.st1{fill:#FFFFFF;}
</style>
<g>
	<circle class="st0" cx="-247.1" cy="420.9" r="20.1"/>
	<g>
		<path class="st1" d="M-247.9,434.8c-0.6-0.1-1.1-0.2-1.7-0.3c-4.8-1-8.8-5-9.8-9.8c-1.3-6.2,2.3-12.4,8.2-14.5
			c0.4-0.1,0.7-0.1,0.9,0.2c0.2,0.3,0,0.7-0.4,0.9c-0.9,0.3-1.8,0.7-2.6,1.2c-3.7,2.5-5.4,5.9-5.2,10.3c0.2,4.7,3.3,8.7,7.8,10.1
			c6.1,2,12.7-1.4,14.5-7.4c1.7-5.7-1-11.6-6.5-14c-0.2-0.1-0.4-0.2-0.5-0.5c0-0.2,0-0.4,0.2-0.6s0.4-0.2,0.6-0.1c1,0.4,2,1,2.9,1.7
			c2.7,2.1,4.4,4.9,4.8,8.3c0.6,4.7-1.1,8.6-4.7,11.5c-1.9,1.6-4.2,2.5-6.8,2.7c-0.1,0-0.1,0-0.2,0
			C-246.8,434.8-247.4,434.8-247.9,434.8z"/>
		<path class="st1" d="M-247.3,415.6c0-2.6,0-5.3,0-7.9c0-0.3,0.1-0.5,0.4-0.6c0.3-0.1,0.5,0,0.7,0.2c0.1,0.1,0.1,0.3,0.1,0.5
			c0,5.2,0,10.4,0,15.7c0,0.4-0.2,0.6-0.4,0.7c-0.3,0.1-0.5,0-0.7-0.3c-0.1-0.1-0.1-0.3-0.1-0.4
			C-247.3,420.9-247.3,418.2-247.3,415.6z"/>
	</g>
</g>
</svg>
